<svg xmlns="http://www.w3.org/2000/svg" version="1.1" xmlns:xlink="http://www.w3.org/1999/xlink" xmlns:svgjs="http://svgjs.dev/svgjs" width="1000" height="1419" viewBox="0 0 1000 1419"><g transform="matrix(1,0,0,1,0.46264367816093,0.5744939271254452)"><svg viewBox="0 0 174 247" data-background-color="#ffffff" preserveAspectRatio="xMidYMid meet" height="1419" width="1000" xmlns="http://www.w3.org/2000/svg" xmlns:xlink="http://www.w3.org/1999/xlink"><g id="tight-bounds" transform="matrix(1,0,0,1,-0.08050000000000068,-0.09999999999999432)"><svg viewBox="0 0 174.160536677116 247.2" height="247.2" width="174.160536677116"><g><svg></svg></g><g><svg viewBox="0 0 174.160536677116 247.2" height="247.2" width="174.160536677116"><g transform="matrix(1,0,0,1,0,47.215199999999996)"><svg viewBox="0 0 174.160536677116 152.7696" height="152.7696" width="174.160536677116"><g><svg viewBox="0 0 174.160536677116 152.7696" height="152.7696" width="174.160536677116"><g><svg viewBox="0 0 174.160536677116 152.7696" height="152.7696" width="174.160536677116"><g><svg viewBox="0 0 174.160536677116 152.7696" height="152.7696" width="174.160536677116"><g id="textblocktransform"><svg viewBox="0 0 174.160536677116 152.7696" height="152.7696" width="174.160536677116" id="textblock"><g><svg viewBox="0 0 174.160536677116 152.7696" height="152.7696" width="174.160536677116"><g transform="matrix(1,0,0,1,0,0)"><svg width="174.160536677116" viewBox="-0.15000000596046448 -37.5 54.55000305175781 47.849998474121094" height="152.7696" data-palette-color="#ff0000"><path d="M17.4-37.5L19.4-37.5 19.4-1.5Q19.4 1.4 18.85 3.63 18.3 5.85 17.07 7.35 15.85 8.85 13.9 9.6 11.95 10.35 9.1 10.35L9.1 10.35Q4.45 10.35 2.15 8.45-0.15 6.55-0.15 3.2L-0.15 3.2Q-0.15 2.3 0.08 1.15 0.3 0 1-1.03 1.7-2.05 2.93-2.73 4.15-3.4 6.2-3.4L6.2-3.4Q6.8-3.4 7.53-3.28 8.25-3.15 8.9-2.63 9.55-2.1 10-1.1 10.45-0.1 10.45 1.7L10.45 1.7Q9.65 1.05 9.05 0.85 8.45 0.65 7.65 0.65L7.65 0.65Q5.8 0.65 5.08 1.45 4.35 2.25 4.35 3.55L4.35 3.55Q4.35 5.6 5.65 6.73 6.95 7.85 8.85 7.85L8.85 7.85Q9.55 7.85 10.2 7.63 10.85 7.4 11.33 6.73 11.8 6.05 12.08 4.85 12.35 3.65 12.35 1.7L12.35 1.7 12.35-34Q10.05-32.95 8.65-30.83 7.25-28.7 7.25-25.25L7.25-25.25Q7.25-23.8 7.5-22.8 7.75-21.8 8.05-21.18 8.35-20.55 8.63-20.2 8.9-19.85 9-19.65L9-19.65Q6-19.65 4.25-21.05 2.5-22.45 2.5-25.45L2.5-25.45Q2.5-28 3.75-30.2 5-32.4 7.08-34.02 9.15-35.65 11.85-36.58 14.55-37.5 17.4-37.5L17.4-37.5ZM39.55-37.4L39.55-21.4 48.25-37.25 52.9-37.25 42.25-21.25Q42.8-21.25 43.12-21.28 43.45-21.3 44-21.3L44-21.3Q47.8-21.3 49.8-19.4 51.8-17.5 51.8-12.9L51.8-12.9Q51.8-12.2 51.75-11.18 51.7-10.15 51.67-9.1 51.65-8.05 51.6-7.1 51.55-6.15 51.55-5.55L51.55-5.55Q51.55-3.1 52.32-1.8 53.1-0.5 54.4 0L54.4 0Q52.9 0.45 51.7 0.65 50.5 0.85 49.55 0.85L49.55 0.85Q47.1 0.85 45.95-0.48 44.8-1.8 44.8-4.7L44.8-4.7Q44.8-5.4 44.85-6.45 44.9-7.5 44.97-8.65 45.05-9.8 45.1-10.93 45.15-12.05 45.15-12.95L45.15-12.95Q45.15-15.65 44.35-17.35 43.55-19.05 41.25-19.05L41.25-19.05Q40.8-19.05 40.35-19 39.9-18.95 39.55-18.85L39.55-18.85 39.55 0 32.35 0 32.35-33.9Q29.95-32.75 28.65-30.58 27.35-28.4 27.35-25.25L27.35-25.25Q27.35-23.9 27.57-22.93 27.8-21.95 28.1-21.3 28.4-20.65 28.67-20.25 28.95-19.85 29.1-19.65L29.1-19.65Q26.1-19.65 24.35-21.05 22.6-22.45 22.6-25.45L22.6-25.45Q22.6-28 23.85-30.2 25.1-32.4 27.17-34.02 29.25-35.65 31.92-36.58 34.6-37.5 37.45-37.5L37.45-37.5Q38-37.5 38.52-37.48 39.05-37.45 39.55-37.4L39.55-37.4Z" opacity="1" transform="matrix(1,0,0,1,0,0)" fill="#ff0000" class="wordmark-text-0" data-fill-palette-color="primary" id="text-0"></path></svg></g></svg></g></svg></g></svg></g><g></g></svg></g></svg></g></svg></g><path d="M0 41.215L0 1 174.161 1 174.161 41.215 160.384 41.215 160.384 14.777 13.777 14.777 13.777 41.215 0 41.215M0 205.985L0 246.2 174.161 246.2 174.161 205.985 160.384 205.985 160.384 232.423 13.777 232.423 13.777 205.985 0 205.985" fill="#ff0000" stroke="transparent" data-fill-palette-color="primary"></path></svg></g><defs></defs></svg><rect width="174.160536677116" height="247.2" fill="none" stroke="none" visibility="hidden"></rect></g></svg></g></svg>